<svg width="170" height="149" viewBox="0 0 170 149" fill="none" xmlns="http://www.w3.org/2000/svg">
<path d="M89.3667 9.473C89.3667 9.473 77.1619 41.3982 39.8478 36.3167C2.53371 31.2352 -16.8803 82.6742 19.0483 99.0364C54.9769 115.399 31.9755 137.772 55.8546 147.217C82.9951 157.953 90.5613 116.584 110.263 119.29C153.745 125.264 179.543 109.433 166.691 90.7764C144.132 58.0272 129.208 60.1097 134.069 37.8797C138.93 15.6497 102.625 -16.0411 89.3667 9.473Z" fill="#E3F1FB"/>
<path d="M113.265 59.0178L94.8904 40.6428C94.6464 40.3991 94.3568 40.2059 94.0382 40.0741C93.7195 39.9424 93.378 39.8747 93.0332 39.875H61.5332C60.1408 39.875 58.8055 40.4281 57.8209 41.4127C56.8363 42.3973 56.2832 43.7326 56.2832 45.125V102.875C56.2832 104.267 56.8363 105.603 57.8209 106.587C58.8055 107.572 60.1408 108.125 61.5332 108.125H108.783C110.176 108.125 111.511 107.572 112.496 106.587C113.48 105.603 114.033 104.267 114.033 102.875V60.875C114.033 60.5302 113.966 60.1887 113.834 59.87C113.702 59.5514 113.509 59.2618 113.265 59.0178ZM95.6582 48.8361L105.072 58.25H95.6582V48.8361ZM108.783 102.875H61.5332V45.125H90.4082V60.875C90.4082 61.5712 90.6848 62.2389 91.177 62.7312C91.6693 63.2234 92.337 63.5 93.0332 63.5H108.783V102.875Z" fill="#1C61B2"/>
<path d="M63.7845 35.9952C63.314 35.9419 62.8821 35.7043 62.5797 35.3324C62.2773 34.9605 62.128 34.4834 62.1633 34.0014L63.1381 15.8225C63.1962 14.7366 64.0944 13.9116 65.1137 14.0076L66.5339 14.1419C67.5532 14.2379 68.2829 15.2159 68.1404 16.2942L65.7449 34.3388C65.6898 34.8195 65.4553 35.2599 65.0901 35.5685C64.7249 35.877 64.2573 36.0298 63.7845 35.9952Z" fill="#2883D7"/>
<path d="M106.261 113.005C106.81 113.058 107.314 113.296 107.666 113.668C108.019 114.039 108.193 114.517 108.152 114.999L107.015 133.177C106.947 134.263 105.899 135.088 104.71 134.992L103.053 134.858C101.864 134.762 101.013 133.784 101.179 132.706L103.974 114.661C104.038 114.181 104.312 113.74 104.738 113.432C105.164 113.123 105.709 112.97 106.261 113.005Z" fill="#2883D7"/>
<path d="M54.271 37.9522C54.1208 37.9958 53.9635 38.0098 53.8079 37.9933C53.6522 37.9767 53.5014 37.9301 53.3641 37.8559C53.2267 37.7818 53.1055 37.6816 53.0072 37.5611C52.909 37.4406 52.8358 37.3022 52.7917 37.1537L49.2197 25.9169C49.1158 25.5973 49.1444 25.25 49.2992 24.9513C49.4539 24.6525 49.7222 24.4267 50.0452 24.3233L50.9701 24.0474C51.1288 24.0016 51.2953 23.9888 51.4592 24.0099C51.6232 24.0309 51.7809 24.0854 51.9224 24.1697C52.064 24.2541 52.1864 24.3666 52.2817 24.5001C52.3771 24.6335 52.4435 24.7851 52.4766 24.9452L55.1241 36.4581C55.1979 36.7676 55.151 37.0932 54.993 37.3701C54.8349 37.6469 54.5771 37.8548 54.271 37.9522Z" fill="#2883D7"/>
<path d="M115.045 111.048C115.196 111.004 115.353 110.99 115.509 111.007C115.664 111.023 115.815 111.07 115.952 111.144C116.09 111.218 116.211 111.318 116.309 111.439C116.407 111.559 116.481 111.698 116.525 111.846L120.097 123.083C120.201 123.403 120.172 123.75 120.017 124.049C119.862 124.347 119.594 124.573 119.271 124.677L118.346 124.953C118.188 124.998 118.021 125.011 117.857 124.99C117.693 124.969 117.536 124.915 117.394 124.83C117.252 124.746 117.13 124.633 117.035 124.5C116.939 124.366 116.873 124.215 116.84 124.055L114.192 112.542C114.119 112.232 114.165 111.907 114.323 111.63C114.482 111.353 114.739 111.145 115.045 111.048Z" fill="#2883D7"/>
<path d="M49.7801 44.4344C49.1084 45.1964 47.7573 45.1874 46.7173 44.4137L28.2521 30.6786C27.1492 29.8581 26.8237 28.5001 27.5365 27.6922L28.5297 26.5656C29.2425 25.7574 30.7063 25.8236 31.75 26.7114L49.2218 41.5733C50.2058 42.4102 50.4519 43.6723 49.7801 44.4344Z" fill="#2883D7"/>
<path d="M119.536 104.566C120.208 103.804 121.559 103.813 122.599 104.586L141.064 118.321C142.167 119.142 142.493 120.5 141.78 121.308L140.787 122.434C140.074 123.243 138.61 123.176 137.566 122.289L120.095 107.427C119.111 106.59 118.864 105.328 119.536 104.566Z" fill="#2883D7"/>
</svg>
